<svg width="80" height="23" fill="none" xmlns="http://www.w3.org/2000/svg"><g clip-path="url(#clip0_2513_718)"><path d="M48.17 14.952c.105 2.75 2.593 5.514 5.447 5.514 1.18 0 2.145-.296 2.87-.865.717-.576 1.083-1.33 1.083-2.262 0-.776-.24-1.419-.71-1.914-.478-.502-1.57-1.108-3.273-1.803-2.548-1.042-4.289-2.062-5.215-3.045-.927-.983-1.39-2.225-1.39-3.71 0-1.848.673-3.364 2.017-4.539 1.345-1.175 3.079-1.73 5.2-1.766 1.562-.03 5.104.362 6.27 1.094l-.015 5.299H59.28c-.045-2.528-2.205-4.679-4.745-4.679-1.046 0-1.868.26-2.48.769-.606.51-.912 1.205-.912 2.077 0 .776.239 1.404.71 1.885.47.487 1.584 1.079 3.325 1.78.351.152.707.293 1.068.422 1.823.725 3.063 1.367 3.706 1.937.665.613 1.166 1.278 1.487 2.003.314.717.478 1.544.478 2.483 0 2.047-.717 3.68-2.144 4.908-1.428 1.227-3.37 1.84-5.798 1.84-2.54 0-5.021-.473-7.33-1.545v-5.868l1.524-.015zm18.082.118c.105 2.742 2.593 5.507 5.44 5.507 1.187 0 2.151-.289 2.869-.865.724-.576 1.09-1.33 1.09-2.254 0-.784-.239-1.42-.717-1.922-.47-.503-1.561-1.109-3.265-1.803-2.548-1.043-4.289-2.063-5.215-3.046-.927-.983-1.397-2.217-1.397-3.703 0-1.847.68-3.362 2.017-4.538C68.419 1.264 70.16.71 72.282.672c1.561-.03 5.103.37 6.26 1.094l-.007 5.3h-1.172c-.046-2.528-2.212-4.671-4.753-4.671-1.038 0-1.868.258-2.473.768-.605.51-.911 1.205-.911 2.07 0 .776.239 1.411.71 1.892.47.48 1.583 1.079 3.324 1.774.24.103.598.251 1.061.428 1.831.717 3.071 1.368 3.714 1.93.665.62 1.165 1.286 1.48 2.002.32.717.485 1.553.485 2.491 0 2.048-.717 3.681-2.144 4.908-1.435 1.22-3.37 1.84-5.806 1.84-2.54 0-5.02-.48-7.322-1.552l-.008-5.86 1.532-.016zm-53.326-4.42c3.34-.45 4.804-2.335 4.804-4.885 0-1.545-.545-2.735-1.636-3.548-1.083-.82-2.66-1.234-4.715-1.227L.18.998V2.18c1.353 0 2.436.156 2.436.725L2.6 20.23c-.56.539-1.853.613-2.6.613v1.212h11.633c3.378 0 6.83-1.234 7.21-5.358.337-3.681-1.912-5.906-5.917-6.046zM7.591 2.365c.015 0 .045-.007.082-.015.479-.03.837-.044 1.061-.044 1.517 0 2.623.347 3.325 1.035.703.68 1.061 1.788 1.061 3.303 0 1.383-.336 2.38-1 2.98-.666.605-1.757.908-3.266.908H7.591V2.365zm0 17.946v-8.5H9.55c2.174 0 4.296 1.19 4.296 4.36 0 3.652-3.056 4.731-6.254 4.14zM40.594 3.437C38.62 1.478 35.887.502 32.382.502c-3.459 0-6.171.99-8.136 2.964-1.965 1.974-2.952 4.701-2.952 8.175 0 3.363.964 5.994 2.892 7.894 1.928 1.899 4.61 2.845 8.054 2.845 3.542 0 6.314-.96 8.317-2.875 2.002-1.914 3.003-4.56 3.003-7.923 0-3.474-.994-6.194-2.966-8.145zm-3.953 14.62c-1.068 1.677-2.503 2.52-4.288 2.52-1.741 0-3.131-.843-4.17-2.513-1.038-1.67-1.561-3.947-1.561-6.807 0-2.816.538-5.063 1.614-6.726 1.068-1.663 2.503-2.491 4.289-2.491 1.71 0 3.1.835 4.146 2.498 1.046 1.67 1.57 3.895 1.57 6.667 0 2.89-.538 5.174-1.6 6.851z" fill="#fff"/></g><defs><clipPath id="clip0_2513_718"><path fill="#fff" transform="translate(0 .5)" d="M0 0h80v22H0z"/></clipPath></defs></svg>